<svg xmlns="http://www.w3.org/2000/svg" viewBox="0 0 1200 630" width="1200" height="630">
  <title>Confeitto — 0% de comissão sobre suas vendas</title>
  <defs>
    <linearGradient id="bg" x1="0" y1="0" x2="1" y2="1">
      <stop offset="0%" stop-color="#2b0c19"/>
      <stop offset="52%" stop-color="#4a1526"/>
      <stop offset="100%" stop-color="#8f2743"/>
    </linearGradient>
    <radialGradient id="glow" cx="50%" cy="50%" r="50%">
      <stop offset="0%" stop-color="#f5b942" stop-opacity=".34"/>
      <stop offset="100%" stop-color="#f5b942" stop-opacity="0"/>
    </radialGradient>
  </defs>
  <rect width="1200" height="630" fill="url(#bg)"/>
  <circle cx="1100" cy="-30" r="330" fill="url(#glow)"/>
  <circle cx="1050" cy="540" r="210" fill="#8fd0b0" opacity=".08"/>
  <circle cx="1100" cy="540" r="142" fill="none" stroke="#8fd0b0" stroke-width="2" stroke-dasharray="8 13" opacity=".22"/>

  <g transform="translate(68,49) scale(1.35)">
    <circle cx="32" cy="17" r="4.5" fill="#f5b942"/>
    <rect x="10" y="20" width="44" height="30" rx="4" fill="#b84a5a"/>
    <rect x="10" y="31" width="44" height="6" fill="#8fd0b0"/>
    <rect x="4" y="50" width="56" height="7" rx="3.5" fill="#faf9f7"/>
  </g>
  <text x="165" y="112" font-family="Outfit, system-ui, -apple-system, sans-serif" font-size="46" font-weight="900" letter-spacing="-1" fill="#faf9f7">Conf<tspan fill="#8fd0b0">ei</tspan>tto</text>

  <rect x="72" y="170" width="344" height="42" rx="21" fill="#8fd0b0" opacity=".14"/>
  <rect x="72" y="170" width="344" height="42" rx="21" fill="none" stroke="#8fd0b0" opacity=".45"/>
  <text x="94" y="198" font-family="Outfit, system-ui, -apple-system, sans-serif" font-size="18" font-weight="800" letter-spacing="2" fill="#bdebd5">SISTEMA PARA CONFEITARIA</text>

  <text x="70" y="340" font-family="Outfit, system-ui, -apple-system, sans-serif" font-size="100" font-weight="900" letter-spacing="-4" fill="#8fd0b0">0% de comissão</text>
  <text x="70" y="432" font-family="Outfit, system-ui, -apple-system, sans-serif" font-size="76" font-weight="900" letter-spacing="-3" fill="#faf9f7">sobre suas vendas.</text>

  <rect x="72" y="478" width="620" height="3" rx="1.5" fill="#f5b942"/>
  <text x="72" y="530" font-family="Outfit, system-ui, -apple-system, sans-serif" font-size="27" font-weight="600" fill="#e8d8dc">Sua loja. Sua marca. Seu dinheiro.</text>
  <text x="72" y="577" font-family="Outfit, system-ui, -apple-system, sans-serif" font-size="24" font-weight="800" fill="#f5b942">confeitto.app</text>

  <text x="984" y="575" font-family="Outfit, system-ui, -apple-system, sans-serif" font-size="74" font-weight="900" letter-spacing="-4" fill="#faf9f7">0%</text>
</svg>
